<svg xmlns="http://www.w3.org/2000/svg" width="430" height="430" style="width:100%;height:100%;transform:translate3d(0,0,0);content-visibility:visible" viewBox="0 0 430 430"><defs><mask id="V" mask-type="alpha"><g filter="url(#a)"><path fill="#fff" d="M0 0h430v430H0z" opacity="0"/><use xmlns:ns1="http://www.w3.org/1999/xlink" ns1:href="#b"/></g></mask><mask id="U" mask-type="alpha"><use xmlns:ns2="http://www.w3.org/1999/xlink" ns2:href="#c"/></mask><mask id="T" mask-type="alpha"><g filter="url(#d)"><path fill="#fff" d="M0 0h430v430H0z" opacity="0"/><use xmlns:ns3="http://www.w3.org/1999/xlink" ns3:href="#e"/></g></mask><mask id="R" mask-type="alpha"><use xmlns:ns4="http://www.w3.org/1999/xlink" ns4:href="#f"/></mask><mask id="Q" mask-type="alpha"><use xmlns:ns5="http://www.w3.org/1999/xlink" ns5:href="#g"/></mask><mask id="O" mask-type="alpha"><g filter="url(#h)"><path fill="#fff" d="M0 0h430v430H0z" opacity="0"/><use xmlns:ns6="http://www.w3.org/1999/xlink" ns6:href="#i"/></g></mask><mask id="K" mask-type="alpha"><g filter="url(#j)"><path fill="#fff" d="M0 0h430v430H0z" opacity="0"/><use xmlns:ns7="http://www.w3.org/1999/xlink" ns7:href="#k"/></g></mask><mask id="J" mask-type="alpha"><g filter="url(#l)"><path fill="#fff" d="M0 0h430v430H0z" opacity="0"/><use xmlns:ns8="http://www.w3.org/1999/xlink" ns8:href="#m"/></g></mask><mask id="L" mask-type="alpha"><use xmlns:ns9="http://www.w3.org/1999/xlink" ns9:href="#n"/></mask><mask id="H" mask-type="alpha"><use xmlns:ns10="http://www.w3.org/1999/xlink" ns10:href="#o"/></mask><mask id="G" mask-type="alpha"><g filter="url(#p)"><path fill="#fff" d="M0 0h430v430H0z" opacity="0"/><use xmlns:ns11="http://www.w3.org/1999/xlink" ns11:href="#q"/></g></mask><mask id="E" mask-type="alpha"><use xmlns:ns12="http://www.w3.org/1999/xlink" ns12:href="#r"/></mask><mask id="D" mask-type="alpha"><g filter="url(#s)"><path fill="#fff" d="M0 0h430v430H0z" opacity="0"/><use xmlns:ns13="http://www.w3.org/1999/xlink" ns13:href="#t"/></g></mask><mask id="B" mask-type="alpha"><use xmlns:ns14="http://www.w3.org/1999/xlink" ns14:href="#u"/></mask><mask id="z" mask-type="alpha"><g filter="url(#v)"><path fill="#fff" d="M0 0h430v430H0z" opacity="0"/><use xmlns:ns15="http://www.w3.org/1999/xlink" ns15:href="#w"/></g></mask><path id="c" style="display:none"/><path id="e" style="display:none"/><path id="f" style="display:none"/><path id="g" style="display:none"/><path id="n" fill="#F9C9C0" d="M-35-54c-5.523 0-10 4.477-10 10v88c0 5.523 4.477 10 10 10h70c5.523 0 10-4.477 10-10v-88c0-5.523-4.477-10-10-10z" style="display:block" transform="translate(155 304)"/><path id="m" fill="#F28BA8" d="M0 30c16.569 0 30-13.431 30-30S16.569-30 0-30-30-16.569-30 0s13.431 30 30 30" style="display:block" transform="translate(285 330)"/><path id="o" style="display:none"/><path id="q" style="display:none"/><path id="u" style="display:none"/><path id="r" style="display:none"/><path id="t" style="display:none"/><path id="w" style="display:none"/><path id="b" style="display:none"/><clipPath id="x"><path d="M0 0h430v430H0z"/></clipPath><clipPath id="S"><path d="M0 0h430v430H0z"/></clipPath><clipPath id="I"><path d="M0 0h430v430H0z"/></clipPath><clipPath id="N"><path d="M0 0h430v430H0z"/></clipPath><clipPath id="P"><path d="M0 0h430v430H0z"/></clipPath><clipPath id="M"><path d="M0 0h430v430H0z"/></clipPath><clipPath id="y"><path d="M0 0h430v430H0z"/></clipPath><clipPath id="F"><path d="M0 0h430v430H0z"/></clipPath><clipPath id="A"><path d="M0 0h430v430H0z"/></clipPath><filter id="a" width="100%" height="100%" x="0%" y="0%" filterUnits="objectBoundingBox"><feComponentTransfer in="SourceGraphic"><feFuncA tableValues="1.0 0.0" type="table"/></feComponentTransfer></filter><filter id="d" width="100%" height="100%" x="0%" y="0%" filterUnits="objectBoundingBox"><feComponentTransfer in="SourceGraphic"><feFuncA tableValues="1.0 0.0" type="table"/></feComponentTransfer></filter><filter id="h" width="100%" height="100%" x="0%" y="0%" filterUnits="objectBoundingBox"><feComponentTransfer in="SourceGraphic"><feFuncA tableValues="1.0 0.0" type="table"/></feComponentTransfer></filter><filter id="j" width="100%" height="100%" x="0%" y="0%" filterUnits="objectBoundingBox"><feComponentTransfer in="SourceGraphic"><feFuncA tableValues="1.0 0.0" type="table"/></feComponentTransfer></filter><filter id="l" width="100%" height="100%" x="0%" y="0%" filterUnits="objectBoundingBox"><feComponentTransfer in="SourceGraphic"><feFuncA tableValues="1.0 0.0" type="table"/></feComponentTransfer></filter><filter id="p" width="100%" height="100%" x="0%" y="0%" filterUnits="objectBoundingBox"><feComponentTransfer in="SourceGraphic"><feFuncA tableValues="1.0 0.0" type="table"/></feComponentTransfer></filter><filter id="s" width="100%" height="100%" x="0%" y="0%" filterUnits="objectBoundingBox"><feComponentTransfer in="SourceGraphic"><feFuncA tableValues="1.0 0.0" type="table"/></feComponentTransfer></filter><filter id="v" width="100%" height="100%" x="0%" y="0%" filterUnits="objectBoundingBox"><feComponentTransfer in="SourceGraphic"><feFuncA tableValues="1.0 0.0" type="table"/></feComponentTransfer></filter><g id="i" style="display:none"><path fill-opacity="0" class="primary"/><path/></g><g id="k" style="display:none"><path fill-opacity="0" class="primary"/><path/></g></defs><g clip-path="url(#x)"><g clip-path="url(#y)" style="display:none"><path class="tertiary" style="display:none"/><g mask="url(#z)" style="mix-blend-mode:multiply;display:none"><path class="tertiary"/></g><g style="display:none"><path class="quinary"/><path class="quinary" style="mix-blend-mode:multiply"/></g><g clip-path="url(#A)" mask="url(#B)" style="display:none"><path class="senary" style="display:none"/><path class="secondary" style="display:none"/><g mask="url(#D)" style="mix-blend-mode:multiply;display:none"><path class="secondary"/></g><path fill="none" class="quaternary" style="display:none"/><path fill="none" class="quaternary" style="display:none"/><path fill="none" class="tertiary" style="display:none"/><g style="display:none"><path class="primary"/><path class="primary" style="mix-blend-mode:multiply"/><path class="primary" style="mix-blend-mode:multiply"/></g><g mask="url(#E)" style="display:none"><path class="secondary"/><path class="secondary" style="mix-blend-mode:multiply"/></g></g><g clip-path="url(#F)" style="display:none"><path class="senary" style="display:none"/><path class="secondary" style="display:none"/><g mask="url(#G)" style="mix-blend-mode:multiply;display:none"><path class="secondary"/></g><path fill="none" class="quaternary" style="display:none"/><path fill="none" class="quaternary" style="display:none"/><path fill="none" class="tertiary" style="display:none"/><g style="display:none"><path class="primary"/><path class="primary" style="mix-blend-mode:multiply"/><path class="primary" style="mix-blend-mode:multiply"/></g><g mask="url(#H)" style="display:none"><path class="secondary"/><path class="secondary" style="mix-blend-mode:multiply"/></g></g><path fill="none" class="quaternary" style="display:none"/><path fill="none" class="quaternary" style="display:none"/><g style="display:none"><path class="tertiary"/><path class="tertiary" style="mix-blend-mode:multiply"/></g><g fill="none" style="display:none"><path class="primary"/><path class="primary"/><path class="primary"/><path class="primary"/></g></g><g clip-path="url(#I)" style="display:block"><g fill="#EBE6EF" style="display:block"><path d="M100 400c-11.046 0-20-8.954-20-20V215h270v165c0 11.046-8.954 20-20 20z" class="quinary"/><path fill-opacity=".5" d="M-135-72.277c0-11.031 8.954-19.973 20-19.973h30c-11.046 0-20 8.942-20 19.973V92.5h-30z" class="quinary" style="mix-blend-mode:multiply" transform="matrix(1 0 0 -1 215 307.5)"/></g><g fill="#92140C" style="display:block"><path d="M100 30c-11.046 0-20 8.954-20 20v165h270V50c0-11.046-8.954-20-20-20z" class="tertiary"/><path fill-opacity=".5" d="M-25-72.5c0-11.046 8.954-20 20-20h30c-11.046 0-20 8.954-20 20v165h-30z" class="tertiary" style="mix-blend-mode:multiply" transform="translate(105 122.5)"/></g><path fill="none" stroke="#FFC738" stroke-linecap="round" stroke-linejoin="round" stroke-width="7" d="M303.746 141H269.85M266 155l3.85-14 9.9-36h13.916l10.08 36 3.92 14m-63.74-50h-18.695c-3.2 0-6.269 1.319-8.531 3.668s-3.534 5.534-3.534 8.855a12.9 12.9 0 0 0 .916 4.794 12.6 12.6 0 0 0 2.615 4.064 12.05 12.05 0 0 0 3.915 2.715c1.464.629 3.034.951 4.619.95h9.24c1.583 0 3.149.324 4.611.954s2.79 1.554 3.907 2.717a12.5 12.5 0 0 1 2.605 4.063c.602 1.519.911 3.147.906 4.79-.005 3.282-1.259 6.43-3.488 8.758s-5.254 3.648-8.416 3.672l-21.072-.195m-25.858.195v-50m-20.166 0-18.75 50h-4.167l-18.75-50" class="primary" style="display:block"/><path fill="none" stroke="#3A3347" stroke-linecap="round" stroke-width="7" d="M45 0h-90" class="quaternary" style="display:block" transform="translate(270 285)"/><path fill="none" stroke="#3A3347" stroke-linecap="round" stroke-width="7" d="M45 0h-90" class="quaternary" style="display:block" transform="translate(270 255)"/><path fill="#F28BA8" d="M0 30c16.569 0 30-13.431 30-30S16.569-30 0-30-30-16.569-30 0s13.431 30 30 30" class="secondary" style="display:block" transform="translate(270 340)"/><g mask="url(#J)" opacity=".5" style="mix-blend-mode:multiply;display:block"><path fill="#F28BA8" d="M270 370c16.569 0 30-13.431 30-30s-13.431-30-30-30-30 13.431-30 30 13.431 30 30 30" class="secondary" opacity="1"/></g><path class="senary" style="display:none"/><path fill="none" stroke="#92140C" stroke-linecap="round" stroke-linejoin="round" stroke-width="7" d="m21.273-16.364-31.895 32.728-10.651-10.929" class="tertiary" style="display:block" transform="translate(278.727 330.728)"/><path fill="none" stroke="#92140C" stroke-linecap="round" stroke-linejoin="round" stroke-width="7" d="M0 0" class="tertiary" style="display:block" transform="translate(283.727 330.728)"/><g mask="url(#K)" style="display:block"><path fill="#F9C9C0" d="M120 250c-5.523 0-10 4.477-10 10v88c0 5.523 4.477 10 10 10h70c5.523 0 10-4.477 10-10v-88c0-5.523-4.477-10-10-10z" class="senary"/></g><g mask="url(#L)" style="display:block"><g clip-path="url(#M)" transform="translate(0 6)"><g fill="#FFC738" style="display:block"><path d="M154.5 299.25c12.426 0 22.5-10.074 22.5-22.5s-10.074-22.5-22.5-22.5-22.5 10.074-22.5 22.5 10.074 22.5 22.5 22.5" class="primary"/><path fill-opacity=".3" d="M0 22.5c12.426 0 22.5-10.074 22.5-22.5S12.426-22.5 0-22.5-22.5-12.426-22.5 0-12.426 22.5 0 22.5" class="primary" style="mix-blend-mode:multiply" transform="translate(154.5 276.75)"/></g><g opacity=".5" style="mix-blend-mode:multiply;display:block"><path fill="#FFC738" d="M164.5 294.25c1.626 0 3.212-.172 4.74-.5a22.4 22.4 0 0 1-14.74 5.5c-12.426 0-22.5-10.074-22.5-22.5 0-10.8 7.61-19.823 17.76-22-4.754 4.125-7.76 10.212-7.76 17 0 12.426 10.074 22.5 22.5 22.5" class="primary" opacity="1"/></g><path fill="#F28BA8" d="M-15-20c-16.569 0-30 13.431-30 30v10h90V10c0-16.569-13.431-30-30-30z" class="secondary" style="display:block" transform="translate(154.75 332)"/><g opacity=".5" style="mix-blend-mode:multiply;display:block"><path fill="#F28BA8" d="M109.75 342c0-16.569 13.431-30 30-30h20c-16.569 0-30 13.431-30 30v10h-20z" class="secondary" opacity="1"/></g></g></g><g clip-path="url(#N)" mask="url(#O)" style="display:none"><g clip-path="url(#P)" mask="url(#Q)" style="display:none"><g style="display:none"><path class="primary"/><path class="primary" style="mix-blend-mode:multiply"/></g><path class="primary" style="mix-blend-mode:multiply;display:none"/><path class="secondary" style="display:none"/><path class="secondary" style="mix-blend-mode:multiply;display:none"/></g></g><g style="display:none"><path class="primary"/><path class="primary" style="mix-blend-mode:multiply"/><path class="primary" style="mix-blend-mode:multiply"/></g><g mask="url(#R)" style="display:none"><path class="secondary"/><path class="secondary" style="mix-blend-mode:multiply"/></g><path fill="none" class="quaternary" style="display:none"/><path fill="none" class="quaternary" style="display:none"/></g><g clip-path="url(#S)" style="display:none"><g style="display:none"><path class="quinary"/><path class="quinary" style="mix-blend-mode:multiply"/></g><g style="display:none"><path class="tertiary"/><path class="tertiary" style="mix-blend-mode:multiply"/></g><path fill="none" class="quaternary" style="display:none"/><path fill="none" class="quaternary" style="display:none"/><path class="secondary" style="display:none"/><g mask="url(#T)" style="mix-blend-mode:multiply;display:none"><path class="secondary"/></g><path class="senary" style="display:none"/><g style="display:none"><path class="primary"/><path class="primary" style="mix-blend-mode:multiply"/><path class="primary" style="mix-blend-mode:multiply"/></g><g mask="url(#U)" style="display:none"><path class="secondary"/><path class="secondary" style="mix-blend-mode:multiply"/></g><path fill="none" class="tertiary" style="display:none"/><path class="tertiary" style="display:none"/><g mask="url(#V)" style="mix-blend-mode:multiply;display:none"><path class="tertiary"/></g><g fill="none" style="display:none"><path class="primary"/><path class="primary"/><path class="primary"/><path class="primary"/></g></g></g></svg>